<svg xmlns="http://www.w3.org/2000/svg" viewBox="0 0 90 90" xmlns:v="https://vecta.io/nano"><path fill="#74bfdc" d="m8.8 62.8a1 1 70.6 00.8.4q2.8 0 5.5.1 3.3 0 5.5 0 13.4-.2 27 .1a.3.3 87.2 01.3.2q.3 2.5 1 4.9a.2.2 90 01-.2.4q-20.6.1-40.7 0-2.3 0-3.3-.7-1.1-.7-1.6-2-.3-.8-.3-2.4 0-22.8 0-45.7 0-4.5.2-5.1.6-2.4 3.2-3 .6-.1 4-.1 30.1-.2 60.1 0 2.5 0 3.5.5 1.2.7 1.8 2.1.3.8.3 2.5 0 13.4 0 26.8a.2.2 90 01-.2.1q-2.4-.7-5-1a.4.4 2.3 01-.4-.4l0-23.4q0-1.5-1.5-1.5-29.1-.1-58.7-.1-1.3 0-1.6 1-.1.2-.1 1.6 0 21.4 0 42.9 0 0 0 .5 0 .8.4 1.3zm30.8-36.8a5.6 5.6 90 11-11.2 0 5.6 5.6 90 1111.2 0zm-6.7 19.6a.5.5 90 00.9 0q5.8-7 11.8-14.3 1.9-2.3 3-2.8 1.6-.7 3.3 0 1 .4 2.3 1.9 4.4 5.1 8.9 10.8a.3.3 61.2 01-.1.5q-13 4.2-15.1 18.4a.3.3-85.3 01-.3.3l-36 0a.3.3 0 01-.3-.3l0-12.9a1.3 1.3-25 01.3-.9q3.4-3.8 6.6-7.5 2-2.3 3.2-2.8 1.8-.7 3.5.3.9.5 2.3 2.2 2.9 3.5 5.7 7.1zm54.3 16.3a18.2 18.2 90 11-36.5 0 18.2 18.2 90 1136.5 0zm-17.5-12.4q-1.1-.8-1.9.3-3.4 4.7-6.7 9.5-.7.9-.5 1.6.3 1.1 1.8 1 .9 0 2 0a.3.3 90 01.3.3v10.8q0 1.5 1.5 1.5 2.4 0 5 .1 2 0 2-1.9 0-5 0-10.5a.3.3 90 01.3-.3q1 0 1.8 0 1.1 0 1.5-.4.6-.4.5-1.1 0-.5-.5-1.1-2.5-3.7-5.2-7.3 0 0-.8-1.3-.5-.7-1.1-1.2z"/></svg>