<svg xmlns="http://www.w3.org/2000/svg" width="950" height="950" xmlns:v="https://vecta.io/nano"><path fill-rule="evenodd" d="M465.5 28.3l251 1.5 15.5 3.5c8.5 1.9 21.6 5.5 29 8 7.4 2.4 17.8 6.5 23 9s14.5 7.5 20.5 11.2 14.4 9.3 18.5 12.4 13.6 11.7 21.1 19.1 17 18 21.1 23.5c4 5.5 10.2 14.9 13.7 21 3.6 6.1 7.9 14.2 9.6 18 1.8 3.8 4.8 11.5 6.8 17s4.5 13.2 5.6 17 2.7 10.8 3.6 15.5c.8 4.7 2.2 14.1 3.1 21 1.2 10.5 1.5 42.9 2 199l-.5 240.5c-1 50.7-1.2 54.9-3.6 68.5-1.4 8-3.9 19.5-5.6 25.5s-5.1 16.2-7.5 22.5c-2.5 6.3-6.8 15.8-9.6 21s-8.1 14-11.9 19.5c-3.7 5.5-10.1 13.8-14.1 18.5-4.1 4.7-11.5 12.3-16.4 17s-12.8 11.5-17.4 15.1c-4.7 3.6-12.5 9.2-17.5 12.3-5 3.2-14 8.2-20 11.2-6 2.9-17.3 7.4-25 10-7.7 2.5-18.5 5.6-24 7-5.5 1.3-14.3 3.1-19.5 3.9-8.2 1.4-34.5 1.8-195 2.7H285.5c-48.5-1-51.7-1.1-64.5-3.6-7.4-1.5-17.6-3.7-22.5-5-4.9-1.4-14.4-4.4-21-6.7-6.6-2.4-16.5-6.6-22-9.4s-15.8-8.9-23-13.6-17.1-11.9-22-16.1c-5-4.1-12.5-11.2-16.8-15.6-4.2-4.5-11-12.6-15-17.9-4-5.4-9.5-13.6-12.4-18.3-2.8-4.7-7-12.3-9.3-17s-6-13.2-8.1-19-5.2-15.5-6.9-21.5-4-16-5.1-22c-1.9-10.1-2.2-16.5-2.9-80l-.8-215L34 257c.8-35.5.9-36.9 3.9-51.3 1.7-8.1 5.1-20.9 7.6-28.5 2.5-7.5 7.1-18.9 10.3-25.2s8.5-15.8 11.7-21c3.3-5.2 9.4-13.8 13.6-19s12.6-14.2 18.5-20c6-5.8 14.5-13.3 18.9-16.6 4.4-3.4 11.8-8.6 16.5-11.6 4.7-3.1 12.1-7.4 16.5-9.6s11.8-5.5 16.5-7.4l15.5-6.1c3.8-1.5 11.5-3.8 17-5.2s14.1-3.3 19-4.2c7.4-1.4 19-1.8 64.5-2.3l181.5-.7zM270.9 228.9a246.63 246.63 0 0 1-8.5 1.5c-3.3.4-8.6 2.2-11.9 3.9-3.3 1.6-8.5 5.5-11.6 8.6-3.7 3.7-6.9 8.2-9.3 13.1-2.1 4.3-4 10.2-4.6 14-.5 3.6-1 33.6-1 66.8V397c3.5.8 10.2 1 17.2 1H254l.8-82.6.7-17.1c6.1-7.6 14.2-16.1 21.9-23.9 7.8-7.7 15.5-14.8 17.1-15.7 2.4-1.2 6.8-1.6 22.5-1.7 10.7 0 33.3-.4 50.3-.8l30.7-.7V228l-127.1.9zm281 1c-.6 1.2-1 6.8-1 14l.1 12.1h93c6.2 3.9 13.9 10.7 21.2 17.8 7.2 7 15.3 15.3 18 18.5l4.8 5.7v100h36.5c1.2-7.4 1.5-35.1 1.5-66.5 0-52.5-.1-57.6-1.9-64.5-1-4.1-3.4-10.2-5.2-13.5-1.9-3.3-5.9-8.5-8.9-11.5-3.2-3.2-8.2-6.9-12-8.8-4.3-2.1-9.1-3.5-14-4.2-4.1-.5-35.3-1-69.2-1-60 0-61.8.1-62.9 1.9zM224 579.8c0 15.2-.2 28.9-.5 30.5-.3 1.5-.2 2.5.2 2.3.5-.2.7 13.8.5 31.2-.3 22 0 33.8.9 38.7.7 4.3 2.6 9.5 4.8 13.5 2 3.6 4.7 7.9 6.2 9.5 1.4 1.7 4.8 4.4 7.5 6.2s8.4 4.4 12.6 5.8l7.8 2.5 132.7-.3c.4-.5.9-6.7 1-13.8l.3-12.9-76-.1c-19.1.3-23 .1-25.8-1.3-1.7-.9-10-8.2-18.4-16.3-8.3-8.2-16.8-16.9-19-19.5L255 651v-99h-31zm464.7-9.6c-.4 10.1-.7 31-.8 46.4 0 15.4-.4 29.8-.7 32-.5 2.8-2.3 5.8-5.9 10-2.8 3.3-11.8 12.4-20 20.4l-14.8 14.4-81.3-.5-14.2.2v27c10.4.9 26.7.9 43 .6l60-.7c16.7 0 32.7-.5 35.5-1 2.7-.5 7.4-2.2 10.4-3.7s8.1-5.2 11.4-8.2c4.2-4 6.9-7.7 9.5-13l3.7-7.5-.9-133.2c-.4-.5-8.3-1-17.5-1.2l-16.7-.3z" fill="#234a6f"/><path d="M398.5 139.6c-.4.4-.8 4.7-.7 9.6l.2 8.8H208.5c-15.5 6.3-21.6 9.1-23.5 10.3s-5.1 3.5-7.1 5.2c-1.9 1.7-5.7 5.5-8.3 8.5s-6.1 8.2-7.8 11.5-3.9 8.5-5 11.5c-1.7 5.2-1.8 10.4-1.8 110.8V421h99v-23c-19.8 0-26.5-.2-27.8-.5l-2.2-.5 1-127c.6-3.8 2.5-9.7 4.6-14 2.4-4.9 5.6-9.4 9.3-13.1 3.1-3.1 8.1-6.9 11.1-8.4s7.8-3.5 10.5-4.3c4.2-1.3 15.2-1.6 71.3-1.9l66.2-.3.5 28.5 22.5.5-.5-117.5c-16.4-.4-21.5-.2-22 .1zm66.5 57.9V256h22V139h-22zm63.5-57.8c-.5.3-.8 26.7-.7 58.5l.2 57.8c11.2.9 16.3 1 18.5.8l4-.3c.8-20.1 1.3-26.6 1.8-27.2.5-1 14.1-1.3 62.5-1.3l69.2 1c4.9.7 9.7 2.1 14 4.2 3.8 1.9 8.8 5.6 12 8.8 3 3 7 8.2 8.9 11.5 1.8 3.3 4.2 9.4 5.2 13.5 1.8 6.9 1.9 12 1.9 64.5l-.7 61.8-.8 4.7H688v23h107V209c-4.6-11.6-7.2-16.9-8.7-19.2-1.4-2.4-5.1-7-8.2-10.2s-9-8.1-13.1-10.8c-4.2-2.8-10.8-5.9-15-7.2-4.1-1.3-10.4-2.6-14-2.9s-46.7-.6-95.8-.6L551 158c0-16.1-.3-18.1-1.5-18.5-.8-.3-5.7-.5-10.8-.5-5.2 0-9.7.3-10.2.7zM155 476c0 8 .3 10.1 1.5 10.5.8.3 23.1.5 49.5.5h48v-21h-99zm534 .5V487h106v-21H689zm-534 160V743c6.4 13.6 10.1 20.1 12.4 23.4 2.2 3.2 6.6 7.8 9.6 10.3s8.2 5.8 11.5 7.3c3.3 1.6 8.3 3.4 11 4.1 3.6.8 32.2 1.3 101.8 1.5l96.7.4.5 20.5h22v-118h-22.3c-.5 20.4-1.1 26.7-1.5 27.2-.5.4-30.5.7-66.8.6-63.9-.3-66.1-.4-72.6-2.4-3.8-1.2-8.8-3.3-11.3-4.7-2.5-1.5-6-4-7.9-5.7-1.8-1.6-5.2-6.1-7.4-10-2.4-4.1-4.6-9.7-5.4-13.5-.9-4.5-1.3-15.8-1.3-37.5-.1-17 .2-31.9.7-33 .5-1.5.4-1.8-.5-1.2-.9.5-1.1-.4-.6-4 .3-2.7.5-10.5.5-17.5l-.2-13.5c-.1-.5-.1-6.3 0-13l.1-12.3h31v-22H155zM689 541v11c26.2.4 34.2.9 34.7 1.3.4.5.8 30.6.8 67v66.2c-6.2 12.9-9 16.6-13.2 20.5-3.2 3-8.3 6.7-11.3 8.2s-7.7 3.2-10.5 3.7c-2.7.5-18.7 1-35.5 1l-60 .7c-16.2.4-32.5.4-36.2 0l-6.8-.6v-27h-23l1 116.4c.3.3 4.6.9 9.5 1.3 7.6.5 9.3.3 10.8-1.1 1.4-1.3 1.7-3.3 1.7-10.1 0-4.7.3-8.7.8-8.9.4-.3 43.7-.5 96.2-.6l100-1.2c2.5-.5 8.1-2.7 12.5-4.8 4.7-2.3 10.7-6.3 14.5-9.8 3.6-3.2 8.1-8.3 10.1-11.3s5-8.9 6.7-13.1l3.2-7.8V530H689zM468.3 692.7l-3.3.3v118c14.3 0 19.2-.5 20-1 1.3-.8 1.5-8.7 1.8-59.5l.3-58.5c-12.1.2-17.1.5-18.8.7z" fill="#96c2e5"/><path d="M315 257c-16 .4-19 .8-21.5 2.4-1.7 1.1-9.1 8-16.6 15.5-7.4 7.5-15.3 15.8-17.5 18.5l-3.9 4.9c-1.3 30.4-1.4 109.6-1 195.7l.6 156.5c4.2 6 12.7 14.9 21.7 23.6 8.9 8.8 17.4 16.5 19 17.3 2.3 1.1 30.7 1.4 177.2 1.4h174.5c28.1-28.1 37.1-37.6 38.1-39.3 1.7-2.6 2-5.8 2.5-33 .3-16.5.4-95.7.2-176l-2-148.5c-.8-1.4-8.8-9.7-17.7-18.6-8.8-8.8-18-17.3-20.3-18.7L644 256l-329 1z" fill="#cfbf78"/><path d="M193 176.4c-2.5.8-6.7 3.4-9.4 5.8s-6.2 6.5-7.7 9.3c-2.6 4.6-2.9 5.9-2.9 15-.1 9.9 0 10.1 3.8 16 2.1 3.3 5.1 7 6.7 8.1 1.7 1.2 4.5 2.9 6.3 3.8 1.7.9 6.9 1.9 11.5 2.3 7.6.6 8.6.5 13.7-2 3-1.4 7.5-4.3 9.9-6.4 2.3-2.1 5.4-6.1 6.7-8.8 1.4-2.8 2.7-7.5 3.1-10.5.4-3.6 0-7.4-1-11-.9-3.1-3.3-7.7-5.4-10.5-2.7-3.4-6-6.1-10.4-8.4-5.1-2.7-7.8-3.4-13.4-3.7-4.3-.3-8.7.2-11.5 1zm536-.1c-1.9.7-5.1 2.2-7 3.4-1.9 1.1-4.8 3.6-6.4 5.4-1.6 1.9-4 5.6-5.2 8.4-1.9 4-2.4 6.7-2.4 13.5 0 6.7.4 9.3 2.1 12.5 1.1 2.2 4 5.9 6.2 8.3 2.3 2.4 6.7 5.5 9.7 7 4.7 2.3 6.7 2.7 13.5 2.6 5.9-.1 9.1-.7 12.3-2.3 2.3-1.1 6.1-4 8.5-6.4 2.3-2.3 5.4-6.5 6.7-9.2 2.1-4.3 2.5-6.4 2.5-14.6 0-8.9-.2-9.9-3-14.5-1.8-2.8-5.4-6.5-8.5-8.7-3-2.1-7.7-4.4-10.5-5.3-2.7-.8-7.2-1.4-10-1.4-2.7.1-6.6.6-8.5 1.3zM376.4 317.9l-41.2.6c-8.9 6.2-13.5 10.2-16 13-2.4 2.7-5.1 6.2-5.8 7.7-1.1 2.3-1.4 10.5-1.4 41.5l.5 131.8 1 95c.2 1.1 3.9 5.6 8.2 10 4.3 4.5 10.1 9.3 12.8 10.9l5 2.9 157-1.8 69.5-.6c33.2 0 43-.3 45-1.4 1.4-.7 5.6-4.4 9.4-8.1 3.7-3.8 8-8.9 9.5-11.4l2.6-4.5v-260c-4.5-7.8-8.1-12.4-10.9-15.4-2.8-2.9-7.1-6.5-9.6-7.9l-4.5-2.6c-147.2-.2-208.5 0-231.1.3zm-181.6 394c-1.5.4-4 1.5-5.5 2.3-1.5.9-4.8 3.5-7.3 5.9-2.4 2.4-5.5 6.9-6.9 9.9-2 4.3-2.6 7.1-2.6 13 0 6.1.5 8.5 2.6 13 1.5 3 4.7 7.2 7 9.3 2.4 2.1 6.2 4.8 8.4 5.9 2.5 1.3 6.8 2.3 11.5 2.6 6.5.4 8.2.2 13-2 3-1.3 7.5-4.2 9.9-6.4 2.4-2.1 5.5-6.2 6.9-8.9 1.7-3.4 2.7-7.2 3-12 .4-5.2 0-8.4-1.4-12.5q-1.8-5.5-6.4-10.1c-2.5-2.5-6.5-5.7-9-7.2-3.6-2.2-6.1-2.8-12.5-3.2-4.4-.3-9.2-.1-10.7.4zm531.2 2.2c-3 1.6-6.9 4.3-8.5 5.9-1.6 1.5-4.3 5.5-6 8.7-2.1 4.2-3.1 7.6-3.4 12.3-.2 4.2.2 8.3 1.2 11.5.9 2.9 3.5 7.1 6 10 2.4 2.7 6.8 6.3 9.8 7.9 4.8 2.6 6.4 3 13.9 3 6.8 0 9.4-.5 12.7-2.2 2.4-1.2 6.2-4.1 8.5-6.5 2.4-2.3 5.3-6.3 6.6-8.7 1.4-2.9 2.5-7.2 2.9-12 .5-6.2.2-8.3-1.4-12-1-2.5-3.2-6.2-4.9-8.4-1.6-2.1-4.9-5-7.4-6.6-2.5-1.5-7-3.5-10-4.4s-7.5-1.6-10-1.6c-3.1 0-6.2 1-10 3.1z" fill="#234a6f"/><path d="M532 348.7c2.5.2 6.1.2 8 0s-.1-.4-4.5-.4-6 .2-3.5.4zM342.3 407c0 4.1.2 5.9.4 4s.2-5.3 0-7.5-.4-.6-.4 3.5z" fill="#96c2e5"/><path d="M517.5 348.7c1.6.2 4.8.2 7 0s.9-.4-3-.4-5.6.2-4 .4zm-113.5 1c1.9.2 5.3.2 7.5 0s.6-.4-3.5-.4-5.9.2-4 .4zm196.4 56.8c0 5.5.1 7.5.3 4.5s.2-7.5 0-10-.3 0-.3 5.5zm-257.9 121l.2 26.5v-54c-.1-14.6-.2-2.2-.2 27.5zM601.3 573c0 4.1.2 5.9.4 4s.2-5.3 0-7.5-.4-.6-.4 3.5zM546 600.7c6.9.2 17.7.2 24 0 6.3-.1.7-.3-12.5-.3s-18.4.2-11.5.3z" fill="#cfbf78"/><path d="M452 349.3l-93.8 1.2c-1.2.3-4.6 2.9-7.6 5.7-3.8 3.8-5.7 6.6-6.6 9.8-1 3.5-1.3 27.1-1.1 109.7L343 581c5 7.4 7.3 10.4 8.5 11.6 1.1 1.1 3.4 2.9 5 3.9s3.9 2 5 2.3 51 .7 111 .9l109 .3c8.2-5 11.8-8.1 13.4-10 1.5-1.9 3.6-5.1 4.6-7 1.7-3.3 1.8-8.5 1.1-111l-2.5-110.5c-1.1-1.6-3.5-4.5-5.5-6.3-2-1.7-5.5-4.2-7.9-5.3-3.9-2-5.4-2.1-22.7-1.8l-110 1.2z" fill="#f0e7bb"/></svg>